<mxfile modified="2021-06-09T13:06:36.000Z" host="app.diagrams.net" agent="5.0 (Windows NT 10.0; Win64; x64) AppleWebKit/537.36 (KHTML, like Gecko) Chrome/91.0.4472.77 Safari/537.36" etag="qljmJwmKS8w65sVCmm7B" version="14.7.6" type="github">
  <diagram id="f106602c-feb2-e66a-4537-3a34d633f6aa" name="Page-1">
    <mxGraphModel dx="1384" dy="729" grid="1" gridSize="10" guides="1" tooltips="1" connect="1" arrows="1" fold="1" page="1" pageScale="1" pageWidth="1169" pageHeight="827" background="none" math="0" shadow="0">
      <root>
        <mxCell id="0" />
        <mxCell id="1" parent="0" />
        <mxCell id="14" value="&lt;b&gt;Google &lt;/b&gt;Cloud Platform" style="shadow=1;fontSize=14;align=left;spacing=10;9E9E9E;verticalAlign=top;spacingTop=-4;fontStyle=0;spacingLeft=40;html=1;" parent="1" vertex="1">
          <mxGeometry x="210" y="90" width="780" height="580" as="geometry" />
        </mxCell>
        <mxCell id="15" value="" style="shape=mxgraph.gcp2.google_cloud_platform;fillColor=#F6F6F6;strokeColor=none;shadow=0;gradientColor=none;" parent="14" vertex="1">
          <mxGeometry width="23" height="20" relative="1" as="geometry">
            <mxPoint x="20" y="10" as="offset" />
          </mxGeometry>
        </mxCell>
        <mxCell id="753" value="us-east1-d" style="rounded=1;absoluteArcSize=1;arcSize=2;html=1;strokeColor=none;gradientColor=none;shadow=0;dashed=0;strokeColor=none;fontSize=12;fontColor=#9E9E9E;align=left;verticalAlign=top;spacing=10;spacingTop=-4;fillColor=#E1F5FE;" parent="14" vertex="1">
          <mxGeometry x="43.82022471910113" y="116" width="368.08988764044943" height="435" as="geometry" />
        </mxCell>
        <mxCell id="oNovaRLqOHhdrpAC01LG-794" style="edgeStyle=orthogonalEdgeStyle;rounded=0;orthogonalLoop=1;jettySize=auto;html=1;entryX=1;entryY=0.5;entryDx=0;entryDy=0;entryPerimeter=0;exitX=0;exitY=0.5;exitDx=0;exitDy=0;" parent="14" target="oNovaRLqOHhdrpAC01LG-792" edge="1">
          <mxGeometry relative="1" as="geometry">
            <mxPoint x="464.49438202247194" y="30.20833333333337" as="sourcePoint" />
          </mxGeometry>
        </mxCell>
        <mxCell id="oNovaRLqOHhdrpAC01LG-821" style="edgeStyle=orthogonalEdgeStyle;rounded=0;orthogonalLoop=1;jettySize=auto;html=1;entryX=0.5;entryY=0;entryDx=0;entryDy=0;" parent="14" source="oNovaRLqOHhdrpAC01LG-792" target="oNovaRLqOHhdrpAC01LG-813" edge="1">
          <mxGeometry relative="1" as="geometry" />
        </mxCell>
        <mxCell id="oNovaRLqOHhdrpAC01LG-792" value="" style="points=[[0,0,0],[0.25,0,0],[0.5,0,0],[0.75,0,0],[1,0,0],[0,1,0],[0.25,1,0],[0.5,1,0],[0.75,1,0],[1,1,0],[0,0.25,0],[0,0.5,0],[0,0.75,0],[1,0.25,0],[1,0.5,0],[1,0.75,0]];outlineConnect=0;fontColor=#232F3E;gradientColor=#F54749;gradientDirection=north;fillColor=#C7131F;strokeColor=#ffffff;dashed=0;verticalLabelPosition=bottom;verticalAlign=top;align=center;html=1;fontSize=12;fontStyle=0;aspect=fixed;shape=mxgraph.aws4.resourceIcon;resIcon=mxgraph.aws4.waf;" parent="14" vertex="1">
          <mxGeometry x="333.03370786516854" width="43.82022471910113" height="43.82022471910113" as="geometry" />
        </mxCell>
        <mxCell id="oNovaRLqOHhdrpAC01LG-797" value="" style="strokeColor=#dddddd;shadow=1;strokeWidth=1;rounded=1;absoluteArcSize=1;arcSize=2;" parent="14" vertex="1">
          <mxGeometry x="179.66292134831463" y="240" width="96.40449438202248" height="50" as="geometry" />
        </mxCell>
        <mxCell id="oNovaRLqOHhdrpAC01LG-798" value="Compute&#xa;Engine" style="dashed=0;connectable=0;html=1;fillColor=#5184F3;strokeColor=none;shape=mxgraph.gcp2.hexIcon;prIcon=compute_engine;part=1;labelPosition=right;verticalLabelPosition=middle;align=left;verticalAlign=middle;spacingLeft=5;fontColor=#999999;fontSize=12;" parent="oNovaRLqOHhdrpAC01LG-797" vertex="1">
          <mxGeometry y="0.5" width="44" height="39" relative="1" as="geometry">
            <mxPoint x="5" y="-19.5" as="offset" />
          </mxGeometry>
        </mxCell>
        <mxCell id="oNovaRLqOHhdrpAC01LG-799" value="" style="strokeColor=#dddddd;shadow=1;strokeWidth=1;rounded=1;absoluteArcSize=1;arcSize=2;" parent="14" vertex="1">
          <mxGeometry x="61.348314606741575" y="240" width="96.40449438202248" height="50" as="geometry" />
        </mxCell>
        <mxCell id="oNovaRLqOHhdrpAC01LG-800" value="Compute&#xa;Engine" style="dashed=0;connectable=0;html=1;fillColor=#5184F3;strokeColor=none;shape=mxgraph.gcp2.hexIcon;prIcon=compute_engine;part=1;labelPosition=right;verticalLabelPosition=middle;align=left;verticalAlign=middle;spacingLeft=5;fontColor=#999999;fontSize=12;" parent="oNovaRLqOHhdrpAC01LG-799" vertex="1">
          <mxGeometry y="0.5" width="44" height="39" relative="1" as="geometry">
            <mxPoint x="5" y="-19.5" as="offset" />
          </mxGeometry>
        </mxCell>
        <mxCell id="oNovaRLqOHhdrpAC01LG-823" style="edgeStyle=orthogonalEdgeStyle;rounded=0;orthogonalLoop=1;jettySize=auto;html=1;exitX=0.5;exitY=1;exitDx=0;exitDy=0;" parent="14" source="oNovaRLqOHhdrpAC01LG-813" edge="1">
          <mxGeometry relative="1" as="geometry">
            <mxPoint x="223.48314606741573" y="130" as="targetPoint" />
          </mxGeometry>
        </mxCell>
        <mxCell id="oNovaRLqOHhdrpAC01LG-813" value="" style="strokeColor=#dddddd;shadow=1;strokeWidth=1;rounded=1;absoluteArcSize=1;arcSize=2;gradientColor=none;" parent="14" vertex="1">
          <mxGeometry x="166.51685393258427" y="30" width="113.93258426966293" height="60" as="geometry" />
        </mxCell>
        <mxCell id="oNovaRLqOHhdrpAC01LG-814" value="Cloud Load&#xa;Balancing" style="dashed=0;connectable=0;html=1;fillColor=#5184F3;strokeColor=none;shape=mxgraph.gcp2.hexIcon;prIcon=cloud_load_balancing;part=1;labelPosition=right;verticalLabelPosition=middle;align=left;verticalAlign=middle;spacingLeft=5;fontColor=#999999;fontSize=12;" parent="oNovaRLqOHhdrpAC01LG-813" vertex="1">
          <mxGeometry y="0.5" width="30" height="39" relative="1" as="geometry">
            <mxPoint x="5" y="-19.5" as="offset" />
          </mxGeometry>
        </mxCell>
        <mxCell id="F2nTqWCfqtZAzKlDj4tm-805" style="edgeStyle=orthogonalEdgeStyle;rounded=0;orthogonalLoop=1;jettySize=auto;html=1;exitX=0.5;exitY=1;exitDx=0;exitDy=0;" edge="1" parent="14" source="oNovaRLqOHhdrpAC01LG-817" target="F2nTqWCfqtZAzKlDj4tm-800">
          <mxGeometry relative="1" as="geometry" />
        </mxCell>
        <mxCell id="oNovaRLqOHhdrpAC01LG-817" value="" style="shape=mxgraph.gcp2.doubleRect;strokeColor=#dddddd;shadow=1;strokeWidth=1;" parent="14" vertex="1">
          <mxGeometry x="144.61" y="130" width="165.39" height="51" as="geometry" />
        </mxCell>
        <mxCell id="oNovaRLqOHhdrpAC01LG-818" value="&lt;font style=&quot;font-size: 9px&quot;&gt;&lt;font color=&quot;#000000&quot; style=&quot;font-size: 9px&quot;&gt;Application load balancer&lt;/font&gt;&lt;br&gt;Cloud Load Balancing&lt;/font&gt;" style="dashed=0;connectable=0;html=1;fillColor=#5184F3;strokeColor=none;shape=mxgraph.gcp2.hexIcon;prIcon=cloud_load_balancing;part=1;labelPosition=right;verticalLabelPosition=middle;align=left;verticalAlign=middle;spacingLeft=5;fontColor=#999999;fontSize=12;" parent="oNovaRLqOHhdrpAC01LG-817" vertex="1">
          <mxGeometry y="0.5" width="44" height="39" relative="1" as="geometry">
            <mxPoint x="5" y="-19.5" as="offset" />
          </mxGeometry>
        </mxCell>
        <mxCell id="oNovaRLqOHhdrpAC01LG-871" style="edgeStyle=orthogonalEdgeStyle;rounded=0;orthogonalLoop=1;jettySize=auto;html=1;exitX=0.5;exitY=1;exitDx=0;exitDy=0;entryX=0.5;entryY=0;entryDx=0;entryDy=0;" parent="14" source="oNovaRLqOHhdrpAC01LG-845" target="oNovaRLqOHhdrpAC01LG-847" edge="1">
          <mxGeometry relative="1" as="geometry" />
        </mxCell>
        <mxCell id="F2nTqWCfqtZAzKlDj4tm-811" style="edgeStyle=orthogonalEdgeStyle;rounded=0;orthogonalLoop=1;jettySize=auto;html=1;exitX=0.75;exitY=0;exitDx=0;exitDy=0;entryX=0.873;entryY=1;entryDx=0;entryDy=0;entryPerimeter=0;" edge="1" parent="14" source="oNovaRLqOHhdrpAC01LG-845" target="F2nTqWCfqtZAzKlDj4tm-800">
          <mxGeometry relative="1" as="geometry" />
        </mxCell>
        <mxCell id="oNovaRLqOHhdrpAC01LG-845" value="" style="strokeColor=#dddddd;shadow=1;strokeWidth=1;rounded=1;absoluteArcSize=1;arcSize=2;gradientColor=none;" parent="14" vertex="1">
          <mxGeometry x="276.0674157303371" y="420" width="122.69662921348315" height="50" as="geometry" />
        </mxCell>
        <mxCell id="oNovaRLqOHhdrpAC01LG-846" value="&lt;font style=&quot;font-size: 10px&quot;&gt;&lt;font color=&quot;#000000&quot; style=&quot;font-size: 10px&quot;&gt;Master_mysql&lt;/font&gt;&lt;br&gt;Compute Engine&lt;/font&gt;" style="dashed=0;connectable=0;html=1;fillColor=#5184F3;strokeColor=none;shape=mxgraph.gcp2.hexIcon;prIcon=compute_engine;part=1;labelPosition=right;verticalLabelPosition=middle;align=left;verticalAlign=middle;spacingLeft=5;fontColor=#999999;fontSize=12;" parent="oNovaRLqOHhdrpAC01LG-845" vertex="1">
          <mxGeometry y="0.5" width="44" height="39" relative="1" as="geometry">
            <mxPoint x="5" y="-19.5" as="offset" />
          </mxGeometry>
        </mxCell>
        <mxCell id="oNovaRLqOHhdrpAC01LG-872" style="edgeStyle=orthogonalEdgeStyle;rounded=0;orthogonalLoop=1;jettySize=auto;html=1;exitX=0.75;exitY=0;exitDx=0;exitDy=0;entryX=0.75;entryY=1;entryDx=0;entryDy=0;" parent="14" source="oNovaRLqOHhdrpAC01LG-847" target="oNovaRLqOHhdrpAC01LG-845" edge="1">
          <mxGeometry relative="1" as="geometry" />
        </mxCell>
        <mxCell id="oNovaRLqOHhdrpAC01LG-847" value="        Slave_mysql&#xa;         Compute Engine" style="strokeColor=#dddddd;shadow=1;strokeWidth=1;rounded=1;absoluteArcSize=1;arcSize=2;gradientColor=none;" parent="14" vertex="1">
          <mxGeometry x="276.0674157303371" y="490.00000000000006" width="122.69662921348315" height="50" as="geometry" />
        </mxCell>
        <mxCell id="oNovaRLqOHhdrpAC01LG-848" value="&lt;span style=&quot;color: rgba(0 , 0 , 0 , 0) ; font-family: monospace ; font-size: 0px&quot;&gt;%3CmxGraphModel%3E%3Croot%3E%3CmxCell%20id%3D%220%22%2F%3E%3CmxCell%20id%3D%221%22%20parent%3D%220%22%2F%3E%3CmxCell%20id%3D%222%22%20value%3D%22%22%20style%3D%22strokeColor%3D%23dddddd%3Bshadow%3D1%3BstrokeWidth%3D1%3Brounded%3D1%3BabsoluteArcSize%3D1%3BarcSize%3D2%3BgradientColor%3Dnone%3B%22%20vertex%3D%221%22%20parent%3D%221%22%3E%3CmxGeometry%20x%3D%22300%22%20y%3D%22520%22%20width%3D%22140%22%20height%3D%2250%22%20as%3D%22geometry%22%2F%3E%3C%2FmxCell%3E%3CmxCell%20id%3D%223%22%20value%3D%22%26lt%3Bfont%20color%3D%26quot%3B%23000000%26quot%3B%26gt%3BName%26lt%3B%2Ffont%26gt%3B%26lt%3Bbr%26gt%3BCompute%20Engine%22%20style%3D%22dashed%3D0%3Bconnectable%3D0%3Bhtml%3D1%3BfillColor%3D%235184F3%3BstrokeColor%3Dnone%3Bshape%3Dmxgraph.gcp2.hexIcon%3BprIcon%3Dcompute_engine%3Bpart%3D1%3BlabelPosition%3Dright%3BverticalLabelPosition%3Dmiddle%3Balign%3Dleft%3BverticalAlign%3Dmiddle%3BspacingLeft%3D5%3BfontColor%3D%23999999%3BfontSize%3D12%3B%22%20vertex%3D%221%22%20parent%3D%222%22%3E%3CmxGeometry%20y%3D%220.5%22%20width%3D%2244%22%20height%3D%2239%22%20relative%3D%221%22%20as%3D%22geometry%22%3E%3CmxPoint%20x%3D%225%22%20y%3D%22-19.5%22%20as%3D%22offset%22%2F%3E%3C%2FmxGeometry%3E%3C%2FmxCell%3E%3C%2Froot%3E%3C%2FmxGraphModel%3E&lt;/span&gt;" style="dashed=0;connectable=0;html=1;fillColor=#5184F3;strokeColor=none;shape=mxgraph.gcp2.hexIcon;prIcon=compute_engine;part=1;labelPosition=right;verticalLabelPosition=middle;align=left;verticalAlign=middle;spacingLeft=5;fontColor=#999999;fontSize=12;" parent="oNovaRLqOHhdrpAC01LG-847" vertex="1">
          <mxGeometry y="0.5" width="44" height="39" relative="1" as="geometry">
            <mxPoint x="5" y="-19.5" as="offset" />
          </mxGeometry>
        </mxCell>
        <mxCell id="oNovaRLqOHhdrpAC01LG-863" style="edgeStyle=orthogonalEdgeStyle;rounded=0;orthogonalLoop=1;jettySize=auto;html=1;exitX=0.5;exitY=1;exitDx=0;exitDy=0;entryX=0.5;entryY=0;entryDx=0;entryDy=0;" parent="14" source="oNovaRLqOHhdrpAC01LG-859" edge="1">
          <mxGeometry relative="1" as="geometry">
            <mxPoint x="530.2247191011236" y="110" as="targetPoint" />
          </mxGeometry>
        </mxCell>
        <mxCell id="oNovaRLqOHhdrpAC01LG-859" value="" style="strokeColor=#dddddd;shadow=1;strokeWidth=1;rounded=1;absoluteArcSize=1;arcSize=2;gradientColor=none;" parent="14" vertex="1">
          <mxGeometry x="473.2584269662922" width="113.93258426966293" height="60" as="geometry" />
        </mxCell>
        <mxCell id="oNovaRLqOHhdrpAC01LG-860" value="&lt;font color=&quot;#000000&quot;&gt;Name&lt;/font&gt;&lt;br&gt;Cloud  DNS" style="dashed=0;connectable=0;html=1;fillColor=#5184F3;strokeColor=none;shape=mxgraph.gcp2.hexIcon;prIcon=cloud_dns;part=1;labelPosition=right;verticalLabelPosition=middle;align=left;verticalAlign=middle;spacingLeft=5;fontColor=#999999;fontSize=12;" parent="oNovaRLqOHhdrpAC01LG-859" vertex="1">
          <mxGeometry y="0.5" width="44" height="39" relative="1" as="geometry">
            <mxPoint x="5" y="-19.5" as="offset" />
          </mxGeometry>
        </mxCell>
        <mxCell id="oNovaRLqOHhdrpAC01LG-864" value="" style="edgeStyle=orthogonalEdgeStyle;fontSize=12;html=1;endArrow=blockThin;endFill=1;rounded=0;strokeWidth=2;endSize=4;startSize=4;dashed=1;dashPattern=1 3;strokeColor=#4284F3;entryX=1;entryY=0.5;entryDx=0;entryDy=0;exitX=0;exitY=0.25;exitDx=0;exitDy=0;" parent="14" target="oNovaRLqOHhdrpAC01LG-813" edge="1">
          <mxGeometry width="100" relative="1" as="geometry">
            <mxPoint x="473.2584269662922" y="125" as="sourcePoint" />
            <mxPoint x="385.6179775280899" y="120" as="targetPoint" />
          </mxGeometry>
        </mxCell>
        <mxCell id="oNovaRLqOHhdrpAC01LG-865" value="" style="strokeColor=#dddddd;shadow=1;strokeWidth=1;rounded=1;absoluteArcSize=1;arcSize=2;gradientColor=none;" parent="14" vertex="1">
          <mxGeometry x="473.2584269662922" y="110" width="113.93258426966293" height="60" as="geometry" />
        </mxCell>
        <mxCell id="oNovaRLqOHhdrpAC01LG-866" value="&lt;font color=&quot;#000000&quot;&gt;Name&lt;/font&gt;&lt;br&gt;Cloud  CDN" style="dashed=0;connectable=0;html=1;fillColor=#5184F3;strokeColor=none;shape=mxgraph.gcp2.hexIcon;prIcon=cloud_cdn;part=1;labelPosition=right;verticalLabelPosition=middle;align=left;verticalAlign=middle;spacingLeft=5;fontColor=#999999;fontSize=12;" parent="oNovaRLqOHhdrpAC01LG-865" vertex="1">
          <mxGeometry y="0.5" width="44" height="39" relative="1" as="geometry">
            <mxPoint x="5" y="-19.5" as="offset" />
          </mxGeometry>
        </mxCell>
        <mxCell id="oNovaRLqOHhdrpAC01LG-869" style="edgeStyle=orthogonalEdgeStyle;rounded=0;orthogonalLoop=1;jettySize=auto;html=1;exitX=1;exitY=0.53;exitDx=0;exitDy=0;exitPerimeter=0;entryX=0;entryY=0.5;entryDx=0;entryDy=0;entryPerimeter=0;" parent="14" source="oNovaRLqOHhdrpAC01LG-867" target="oNovaRLqOHhdrpAC01LG-868" edge="1">
          <mxGeometry relative="1" as="geometry" />
        </mxCell>
        <mxCell id="oNovaRLqOHhdrpAC01LG-867" value="" style="outlineConnect=0;dashed=0;verticalLabelPosition=bottom;verticalAlign=top;align=center;html=1;shape=mxgraph.aws3.redis;fillColor=#2E73B8;gradientColor=none;" parent="14" vertex="1">
          <mxGeometry x="105.1685393258427" y="360" width="43.82022471910113" height="40" as="geometry" />
        </mxCell>
        <mxCell id="oNovaRLqOHhdrpAC01LG-870" style="edgeStyle=orthogonalEdgeStyle;rounded=0;orthogonalLoop=1;jettySize=auto;html=1;entryX=1;entryY=0.53;entryDx=0;entryDy=0;entryPerimeter=0;" parent="14" source="oNovaRLqOHhdrpAC01LG-868" target="oNovaRLqOHhdrpAC01LG-867" edge="1">
          <mxGeometry relative="1" as="geometry" />
        </mxCell>
        <mxCell id="oNovaRLqOHhdrpAC01LG-868" value="" style="outlineConnect=0;dashed=0;verticalLabelPosition=bottom;verticalAlign=top;align=center;html=1;shape=mxgraph.aws3.redis;fillColor=#2E73B8;gradientColor=none;" parent="14" vertex="1">
          <mxGeometry x="254.15730337078654" y="361" width="43.82022471910113" height="41" as="geometry" />
        </mxCell>
        <mxCell id="oNovaRLqOHhdrpAC01LG-801" value="" style="strokeColor=#dddddd;shadow=1;strokeWidth=1;rounded=1;absoluteArcSize=1;arcSize=2;" parent="14" vertex="1">
          <mxGeometry x="293.59550561797755" y="240" width="118.31460674157304" height="50" as="geometry" />
        </mxCell>
        <mxCell id="oNovaRLqOHhdrpAC01LG-802" value="Compute&#xa;Engine" style="dashed=0;connectable=0;html=1;fillColor=#5184F3;strokeColor=none;shape=mxgraph.gcp2.hexIcon;prIcon=compute_engine;part=1;labelPosition=right;verticalLabelPosition=middle;align=left;verticalAlign=middle;spacingLeft=5;fontColor=#999999;fontSize=12;" parent="oNovaRLqOHhdrpAC01LG-801" vertex="1">
          <mxGeometry y="0.5" width="44" height="39" relative="1" as="geometry">
            <mxPoint x="5" y="-19.5" as="offset" />
          </mxGeometry>
        </mxCell>
        <mxCell id="F2nTqWCfqtZAzKlDj4tm-800" value="" style="rounded=0;whiteSpace=wrap;html=1;fillColor=none;" vertex="1" parent="oNovaRLqOHhdrpAC01LG-801">
          <mxGeometry x="-228.74157303370788" y="-21.42857142857143" width="347.0561797752809" height="71.42857142857143" as="geometry" />
        </mxCell>
        <mxCell id="F2nTqWCfqtZAzKlDj4tm-804" value="Application Sever&lt;br&gt;" style="text;html=1;strokeColor=none;fillColor=none;align=center;verticalAlign=middle;whiteSpace=wrap;rounded=0;" vertex="1" parent="oNovaRLqOHhdrpAC01LG-801">
          <mxGeometry x="-223.48314606741573" y="-21.43" width="100.78651685393258" height="21.43" as="geometry" />
        </mxCell>
        <mxCell id="F2nTqWCfqtZAzKlDj4tm-814" value="" style="endArrow=classic;html=1;exitX=0.895;exitY=1.025;exitDx=0;exitDy=0;exitPerimeter=0;entryX=0.818;entryY=0.012;entryDx=0;entryDy=0;entryPerimeter=0;" edge="1" parent="14" source="F2nTqWCfqtZAzKlDj4tm-800" target="oNovaRLqOHhdrpAC01LG-845">
          <mxGeometry width="50" height="50" relative="1" as="geometry">
            <mxPoint x="380" y="340" as="sourcePoint" />
            <mxPoint x="430" y="290" as="targetPoint" />
          </mxGeometry>
        </mxCell>
        <mxCell id="oNovaRLqOHhdrpAC01LG-887" value="&amp;nbsp; &amp;nbsp; &amp;nbsp; &amp;nbsp; &amp;nbsp; &amp;nbsp; &amp;nbsp; &amp;nbsp; &amp;nbsp; &amp;nbsp; &amp;nbsp;Redis Cache" style="rounded=1;absoluteArcSize=1;arcSize=2;html=1;strokeColor=none;gradientColor=none;shadow=0;dashed=1;strokeColor=#4284F3;fontSize=12;fontColor=#9E9E9E;align=left;verticalAlign=top;spacing=10;spacingTop=-4;fillColor=none;dashPattern=1 2;strokeWidth=2;" parent="14" vertex="1">
          <mxGeometry x="80" y="350" width="240" height="60" as="geometry" />
        </mxCell>
        <mxCell id="F2nTqWCfqtZAzKlDj4tm-807" style="edgeStyle=orthogonalEdgeStyle;rounded=0;orthogonalLoop=1;jettySize=auto;html=1;exitX=0.25;exitY=1;exitDx=0;exitDy=0;entryX=0.223;entryY=0.003;entryDx=0;entryDy=0;entryPerimeter=0;" edge="1" parent="14" source="F2nTqWCfqtZAzKlDj4tm-800" target="oNovaRLqOHhdrpAC01LG-887">
          <mxGeometry relative="1" as="geometry" />
        </mxCell>
        <mxCell id="F2nTqWCfqtZAzKlDj4tm-808" style="edgeStyle=orthogonalEdgeStyle;rounded=0;orthogonalLoop=1;jettySize=auto;html=1;exitX=0.25;exitY=0;exitDx=0;exitDy=0;entryX=0.25;entryY=1;entryDx=0;entryDy=0;" edge="1" parent="14" source="oNovaRLqOHhdrpAC01LG-887" target="F2nTqWCfqtZAzKlDj4tm-800">
          <mxGeometry relative="1" as="geometry" />
        </mxCell>
        <mxCell id="F2nTqWCfqtZAzKlDj4tm-809" style="edgeStyle=orthogonalEdgeStyle;rounded=0;orthogonalLoop=1;jettySize=auto;html=1;exitX=0.25;exitY=1;exitDx=0;exitDy=0;entryX=0;entryY=0.5;entryDx=0;entryDy=0;" edge="1" parent="14" source="oNovaRLqOHhdrpAC01LG-887" target="oNovaRLqOHhdrpAC01LG-845">
          <mxGeometry relative="1" as="geometry" />
        </mxCell>
        <mxCell id="F2nTqWCfqtZAzKlDj4tm-810" style="edgeStyle=orthogonalEdgeStyle;rounded=0;orthogonalLoop=1;jettySize=auto;html=1;exitX=0;exitY=0.25;exitDx=0;exitDy=0;entryX=0.3;entryY=1.07;entryDx=0;entryDy=0;entryPerimeter=0;" edge="1" parent="14" source="oNovaRLqOHhdrpAC01LG-845" target="oNovaRLqOHhdrpAC01LG-887">
          <mxGeometry relative="1" as="geometry" />
        </mxCell>
        <mxCell id="oNovaRLqOHhdrpAC01LG-827" style="edgeStyle=orthogonalEdgeStyle;rounded=0;orthogonalLoop=1;jettySize=auto;html=1;exitX=0;exitY=0.25;exitDx=0;exitDy=0;entryX=1;entryY=0.5;entryDx=0;entryDy=0;" parent="1" source="756" edge="1">
          <mxGeometry relative="1" as="geometry">
            <mxPoint x="810" y="120.20833333333337" as="targetPoint" />
          </mxGeometry>
        </mxCell>
        <mxCell id="756" value="Users" style="rounded=1;absoluteArcSize=1;arcSize=2;html=1;strokeColor=none;gradientColor=none;shadow=0;dashed=0;strokeColor=none;fontSize=12;fontColor=#9E9E9E;align=left;verticalAlign=top;spacing=10;spacingTop=-4;fillColor=#F1F8E9;" parent="1" vertex="1">
          <mxGeometry x="950" y="10" width="90" height="190" as="geometry" />
        </mxCell>
        <mxCell id="749" value="" style="strokeColor=#dddddd;fillColor=#ffffff;shadow=1;strokeWidth=1;rounded=1;absoluteArcSize=1;arcSize=2;labelPosition=center;verticalLabelPosition=middle;align=center;verticalAlign=bottom;spacingLeft=0;fontColor=#999999;fontSize=12;whiteSpace=wrap;spacingBottom=2;html=1;" parent="1" vertex="1">
          <mxGeometry x="960" y="40" width="70" height="69" as="geometry" />
        </mxCell>
        <mxCell id="750" value="" style="dashed=0;connectable=0;html=1;fillColor=#757575;strokeColor=none;shape=mxgraph.gcp2.laptop;part=1;" parent="749" vertex="1">
          <mxGeometry x="0.5" width="50" height="33" relative="1" as="geometry">
            <mxPoint x="-25" y="18.5" as="offset" />
          </mxGeometry>
        </mxCell>
        <mxCell id="oNovaRLqOHhdrpAC01LG-828" style="edgeStyle=orthogonalEdgeStyle;rounded=0;orthogonalLoop=1;jettySize=auto;html=1;exitX=0;exitY=0.5;exitDx=0;exitDy=0;" parent="1" source="oNovaRLqOHhdrpAC01LG-788" edge="1">
          <mxGeometry relative="1" as="geometry">
            <mxPoint x="870" y="120" as="targetPoint" />
            <Array as="points">
              <mxPoint x="880" y="155" />
              <mxPoint x="880" y="120" />
            </Array>
          </mxGeometry>
        </mxCell>
        <mxCell id="oNovaRLqOHhdrpAC01LG-788" value="" style="strokeColor=#dddddd;fillColor=#ffffff;shadow=1;strokeWidth=1;rounded=1;absoluteArcSize=1;arcSize=2;labelPosition=center;verticalLabelPosition=middle;align=center;verticalAlign=bottom;spacingLeft=0;fontColor=#999999;fontSize=12;whiteSpace=wrap;spacingBottom=2;html=1;" parent="1" vertex="1">
          <mxGeometry x="960" y="120" width="70" height="69" as="geometry" />
        </mxCell>
        <mxCell id="oNovaRLqOHhdrpAC01LG-789" value="" style="dashed=0;connectable=0;html=1;fillColor=#757575;strokeColor=none;shape=mxgraph.gcp2.laptop;part=1;" parent="oNovaRLqOHhdrpAC01LG-788" vertex="1">
          <mxGeometry x="0.5" width="50" height="33" relative="1" as="geometry">
            <mxPoint x="-25" y="18.5" as="offset" />
          </mxGeometry>
        </mxCell>
        <mxCell id="F2nTqWCfqtZAzKlDj4tm-815" value="WAF" style="text;html=1;strokeColor=none;fillColor=none;align=center;verticalAlign=middle;whiteSpace=wrap;rounded=0;" vertex="1" parent="1">
          <mxGeometry x="545" y="130" width="40" height="20" as="geometry" />
        </mxCell>
      </root>
    </mxGraphModel>
  </diagram>
</mxfile>
